# xmcd
#
# Track frame offsets:
#	150
#	34114
#	85619
#	107136
#	138451
#	171392
#	187330
#	204867
#	224061
#
# Disc length: 3791 seconds
#
# Revision: 1
# Processed by: cddbd v1.4PL0 Copyright (c) Steve Scherf et al.
# Submitted via: audiograbber 1.82.00
#
DISCID=860ecd09
DTITLE=Blues Pumpm - Live, The Wolfpack Tapes, CD2
DYEAR=2001
DGENRE=Blues
TTITLE0=Key of Destiny
TTITLE1=The Game
TTITLE2=Parchman Farm
TTITLE3=Only a few Days
TTITLE4=Men From Milwaukee
TTITLE5=Hallelujah I Love Her So
TTITLE6=Drink of Wine, Mop, Mop
TTITLE7=Two Turning Wheels
TTITLE8=Edlauer Boogie
EXTD=
EXTT0=
EXTT1=
EXTT2=
EXTT3=
EXTT4=
EXTT5=
EXTT6=
EXTT7=
EXTT8=
PLAYORDER=
